# xmcd CD database file
#
# Track frame offsets:
#	150
#	12751
#	28427
#	56028
#	67954
#	90275
#	117726
#	132878
#	164829
#
# Disc length: 2461 seconds
#
# Revision: 0
# Processed by: cddbd v1.4PL0 Copyright (c) Steve Scherf et al.
# Submitted via: CDex 1.51
#
DISCID=7c099b09
DTITLE=Sonia Cat - Berro Quartet - A Singing affair
DYEAR=1998
DGENRE=Jazz
TTITLE0=PisteAyour're getting to be a habbit with meudio 01
TTITLE1=the lamp is low
TTITLE2=I thought about you
TTITLE3=I didn't know what time it was
TTITLE4=the masquerade is love
TTITLE5=like someone in love
TTITLE6=we're together
TTITLE7=don't be on the outside
TTITLE8=my heart belongs to daddy
EXTD=YEAR: 1998
EXTT0=
EXTT1=
EXTT2=
EXTT3=
EXTT4=
EXTT5=
EXTT6=
EXTT7=
EXTT8=
PLAYORDER=
